<mxfile host="Electron" modified="2023-11-08T15:16:56.121Z" agent="Mozilla/5.0 (Macintosh; Intel Mac OS X 10_15_7) AppleWebKit/537.36 (KHTML, like Gecko) draw.io/22.0.3 Chrome/114.0.5735.289 Electron/25.8.4 Safari/537.36" etag="guzAKviWknQqkdaTK6lA" version="22.0.3" type="device">
  <diagram name="Pagina-1" id="IqmYXMP97BhA6nbz49pb">
    <mxGraphModel dx="909" dy="557" grid="1" gridSize="10" guides="1" tooltips="1" connect="1" arrows="1" fold="1" page="1" pageScale="1" pageWidth="827" pageHeight="1169" math="0" shadow="0">
      <root>
        <mxCell id="0" />
        <mxCell id="1" parent="0" />
        <mxCell id="8ub5OhvAAB7cXXIeM9nK-1" value="" style="edgeStyle=orthogonalEdgeStyle;rounded=0;orthogonalLoop=1;jettySize=auto;html=1;dashed=1;dashPattern=8 8;endArrow=open;endFill=0;" edge="1" parent="1" source="8ub5OhvAAB7cXXIeM9nK-3" target="8ub5OhvAAB7cXXIeM9nK-5">
          <mxGeometry relative="1" as="geometry" />
        </mxCell>
        <mxCell id="8ub5OhvAAB7cXXIeM9nK-2" value="&amp;lt;&amp;lt;manifest&amp;gt;&amp;gt;" style="edgeLabel;html=1;align=center;verticalAlign=middle;resizable=0;points=[];" vertex="1" connectable="0" parent="8ub5OhvAAB7cXXIeM9nK-1">
          <mxGeometry x="0.2571" y="-3" relative="1" as="geometry">
            <mxPoint x="-3" y="4" as="offset" />
          </mxGeometry>
        </mxCell>
        <mxCell id="8ub5OhvAAB7cXXIeM9nK-3" value="RentEaseServer.war" style="html=1;dropTarget=0;whiteSpace=wrap;" vertex="1" parent="1">
          <mxGeometry x="324" y="490" width="180" height="90" as="geometry" />
        </mxCell>
        <mxCell id="8ub5OhvAAB7cXXIeM9nK-4" value="" style="shape=image;verticalLabelPosition=bottom;labelBackgroundColor=default;verticalAlign=top;aspect=fixed;imageAspect=0;image=data:image/png,iVBORw0KGgoAAAANSUhEUgAAAMgAAADICAYAAACtWK6eAAAABHNCSVQICAgIfAhkiAAAAAlwSFlzAAALEwAACxMBAJqcGAAABPtJREFUeJzt3E+opXUdx/GP5p9MTcn8E4VWi0HbC65ctBJ0YUt14aLaFEEQuBCkhQQuQhAEQRFJAkHFEEIQERQSISILFZGiIgoNQV24sNBsca7M9WnmM+PMuef3c57XCw5zZ+55fr/vMPfN89w5z7kJAAAAAAAAsDqnDd7/W0l+lOScwXPw//6T5BdJXhg9yJq9lOQjj2kf7ye5/qj/eitw+uD9vzJ4f7qzkzyR5MbRg4wy+hLrzSSX7n38YJJ/DJyFjfOS/GTxZx8kuTnJY7sfZ93ezOHT+TWDZ2Hjshz5cuuDJLcMnGuI0ZdYzO/dvV8/l+ThJLcOnGV1nEHmszyDXJ3kX/t+/98k3x823coIZD7LQD6f5Kokb+STkfxg1IBrIpD5HCmQJDmUzX+i7P/cj0cMuCYCmc/RAkmSbyb52+Lzt+14vlURyHxaIElyRZK/LJ5zxy4HXBOBzOdYgSTJ15L8afG8O3c14JoIZD7HE0iyuQvitcVz79rFgGsikPkcbyBJckmSlxfPv/ugB1wTgczn0wSSJF9O8ofFMfdm/G1MpwSBzOfTBpIkX0ryu8Vx90ckJ00g8zmRQJLkgiQvLo59KG5nOikCmc+JBpIk5yf5zeL4X2ZzHxcnQCDzOZlAkuTcJM8t1ng0yRnbG3E9BDKfkw0kSb6Q5JnFOr9KctaWZlwNgcxnG4Fk77inFmv9Opt3KXKcBDKfbQWSbM4YTy7Wezp+SMdxE8h8thlIkpyZ5PHFms9mcxnGMQhkPtsOJNl8g/7IYt3ns3n/O4VA5nMQgSSH37K7f+0XknxxS+ufkgQyn4MKJNm8aPjgYv3fJrlwi3ucUgQyn4MMJNncfnLfYo/fJ7loy/ucEgQyn4MO5GP3LPb5Y5KLD2ivzyyBzGdXgSTJzxd7vbq3P3sEMp9dBpIkP1vs93qSrx7wnp8ZApnPrgNJkp8u9vxzkst3sO/0BDKfEYEkye2Lff+a5Bs72vuo3GHJsTyQ5MMd7fVWDn+j/vVsXkz8djZnlFVyBpnP0X549ajHiwf71+2824uld5K8PXqIfYa+0u4Si6V/J7k2yXcy7uvjUJKb9j7+aNAMU3CJxZHckMNfF6+MHMQlFhQCgUIgUAgECoFAIRAoBAKFQKAQCBQCgUIgUAgECoFAIRAoBAKFQKAQCBQCgUIgUAgECoFAIRAoBAKFQKAQCBQCgUIgUAgECoFAIRAoBAKFQKAQCBQCgUIgUAgECoFAIRAoBAKFQKAQCBQCgUIgUAgECoFAIRAoBAKFQKAQCBQCgUIgUAgECoFAIRAoBAKFQKAQCBQCgUIgUAgECoFAIRAoBAKFQKAQCBQCgUIgUAgECoFAIRAoBAKFQKAQCBQCgUIgUAgECoFAIRAoBAKFQKAQCBQCgUIgUAgECoFAIRAoBAKFQKAQCBQCgUIgUAgECoFAIRAoBAKFQKAQCBQCgUIgUAgECoFAIRAoBAKFQKAQCBQCgUIgUAgECoFAIRAoBAKFQKAQCBQCgUIgUAgECoFAIRAoBAKFQKAQCBQCgUIgUAgECoFAIRAoBAKFQKAQCBQCgUIgUAgECoFAIRAoBAKFQKAQCBQCgUIgUAgECoFAccboAfb5XpLrRg/BFA6NHuBjMwXy3dEDwNLoS6w3Bu/P/P45cvPTRm6e5MokP0xyzuA5mNN7Se5O8vfRgwAAAAAAAAAr8j8CMtEhpns/hgAAAABJRU5ErkJggg==;" vertex="1" parent="1">
          <mxGeometry x="470" y="500" width="30" height="30" as="geometry" />
        </mxCell>
        <mxCell id="8ub5OhvAAB7cXXIeM9nK-5" value="&lt;b&gt;RentEaseServer&lt;/b&gt;" style="html=1;dropTarget=0;whiteSpace=wrap;fillColor=#82B366;" vertex="1" parent="1">
          <mxGeometry x="324" y="330" width="180" height="90" as="geometry" />
        </mxCell>
        <mxCell id="8ub5OhvAAB7cXXIeM9nK-6" value="" style="shape=module;jettyWidth=8;jettyHeight=4;fillColor=#82B366;" vertex="1" parent="8ub5OhvAAB7cXXIeM9nK-5">
          <mxGeometry x="1" width="20" height="20" relative="1" as="geometry">
            <mxPoint x="-27" y="7" as="offset" />
          </mxGeometry>
        </mxCell>
      </root>
    </mxGraphModel>
  </diagram>
</mxfile>
